<mxfile host="app.diagrams.net" agent="Mozilla/5.0 (Windows NT 10.0; Win64; x64) AppleWebKit/537.36 (KHTML, like Gecko) Chrome/132.0.0.0 Safari/537.36 Edg/132.0.0.0" version="28.0.7">
  <diagram name="PÃ¡gina-1" id="CejSmOrYhXpctLL-NzXI">
    <mxGraphModel dx="695" dy="1999" grid="1" gridSize="10" guides="1" tooltips="1" connect="1" arrows="1" fold="1" page="1" pageScale="1" pageWidth="827" pageHeight="1169" math="0" shadow="0">
      <root>
        <mxCell id="0" />
        <mxCell id="1" parent="0" />
        <mxCell id="EBSiqWZ-LHTAj2eSK9Hy-2" style="edgeStyle=none;curved=1;rounded=0;orthogonalLoop=1;jettySize=auto;html=1;exitX=0.5;exitY=1;exitDx=0;exitDy=0;exitPerimeter=0;fontSize=12;startSize=8;endSize=8;" edge="1" parent="1" source="EBSiqWZ-LHTAj2eSK9Hy-1">
          <mxGeometry relative="1" as="geometry">
            <mxPoint x="350" y="-1060" as="targetPoint" />
          </mxGeometry>
        </mxCell>
        <mxCell id="EBSiqWZ-LHTAj2eSK9Hy-1" value="Inicio" style="strokeWidth=2;html=1;shape=mxgraph.flowchart.terminator;whiteSpace=wrap;" vertex="1" parent="1">
          <mxGeometry x="300" y="-1160" width="100" height="60" as="geometry" />
        </mxCell>
        <mxCell id="EBSiqWZ-LHTAj2eSK9Hy-5" style="edgeStyle=none;curved=1;rounded=0;orthogonalLoop=1;jettySize=auto;html=1;exitX=0.5;exitY=1;exitDx=0;exitDy=0;fontSize=12;startSize=8;endSize=8;" edge="1" parent="1" source="EBSiqWZ-LHTAj2eSK9Hy-3">
          <mxGeometry relative="1" as="geometry">
            <mxPoint x="340" y="-940" as="targetPoint" />
          </mxGeometry>
        </mxCell>
        <mxCell id="EBSiqWZ-LHTAj2eSK9Hy-3" value="ID, S1, S2, S3, S4, S5, S6" style="shape=parallelogram;html=1;strokeWidth=2;perimeter=parallelogramPerimeter;whiteSpace=wrap;rounded=1;arcSize=12;size=0.23;" vertex="1" parent="1">
          <mxGeometry x="200" y="-1060" width="280" height="70" as="geometry" />
        </mxCell>
        <mxCell id="EBSiqWZ-LHTAj2eSK9Hy-4" style="edgeStyle=none;curved=1;rounded=0;orthogonalLoop=1;jettySize=auto;html=1;entryX=0.5;entryY=0;entryDx=0;entryDy=0;fontSize=12;startSize=8;endSize=8;" edge="1" parent="1" source="EBSiqWZ-LHTAj2eSK9Hy-3" target="EBSiqWZ-LHTAj2eSK9Hy-3">
          <mxGeometry relative="1" as="geometry" />
        </mxCell>
        <mxCell id="EBSiqWZ-LHTAj2eSK9Hy-7" style="edgeStyle=none;curved=1;rounded=0;orthogonalLoop=1;jettySize=auto;html=1;fontSize=12;startSize=8;endSize=8;entryX=0.5;entryY=0;entryDx=0;entryDy=0;entryPerimeter=0;" edge="1" parent="1" source="EBSiqWZ-LHTAj2eSK9Hy-6" target="EBSiqWZ-LHTAj2eSK9Hy-8">
          <mxGeometry relative="1" as="geometry">
            <mxPoint x="340" y="-790" as="targetPoint" />
          </mxGeometry>
        </mxCell>
        <mxCell id="EBSiqWZ-LHTAj2eSK9Hy-6" value="Total = S1+ S2 + S3 + S4 + S5 +S6&lt;div&gt;PROMEDIO = Total/6&lt;/div&gt;" style="rounded=1;whiteSpace=wrap;html=1;absoluteArcSize=1;arcSize=14;strokeWidth=2;" vertex="1" parent="1">
          <mxGeometry x="220" y="-940" width="240" height="100" as="geometry" />
        </mxCell>
        <mxCell id="EBSiqWZ-LHTAj2eSK9Hy-9" style="edgeStyle=none;curved=1;rounded=0;orthogonalLoop=1;jettySize=auto;html=1;fontSize=12;startSize=8;endSize=8;" edge="1" parent="1" source="EBSiqWZ-LHTAj2eSK9Hy-8">
          <mxGeometry relative="1" as="geometry">
            <mxPoint x="345" y="-600" as="targetPoint" />
          </mxGeometry>
        </mxCell>
        <mxCell id="EBSiqWZ-LHTAj2eSK9Hy-8" value="ID, Total, Promedio" style="strokeWidth=2;html=1;shape=mxgraph.flowchart.document2;whiteSpace=wrap;size=0.25;" vertex="1" parent="1">
          <mxGeometry x="220" y="-780" width="250" height="130" as="geometry" />
        </mxCell>
        <mxCell id="EBSiqWZ-LHTAj2eSK9Hy-10" value="Fin" style="strokeWidth=2;html=1;shape=mxgraph.flowchart.terminator;whiteSpace=wrap;" vertex="1" parent="1">
          <mxGeometry x="295" y="-590" width="100" height="60" as="geometry" />
        </mxCell>
      </root>
    </mxGraphModel>
  </diagram>
</mxfile>
